<svg width="1600" height="900" viewBox="0 0 1600 900" class="max-w-full max-h-[60vh] bg-white shadow-sm border border-zinc-200" style="aspect-ratio: 1600 / 900;" xmlns="http://www.w3.org/2000/svg"><defs><marker id="arrowhead-svg" markerWidth="10" markerHeight="7" refX="10" refY="3.5" orient="auto"><polygon points="0 0, 10 3.5, 0 7" fill="#1a1a1a"/></marker><marker id="arrowhead-curve" markerWidth="10" markerHeight="7" refX="10" refY="3.5" orient="auto"><polygon points="0 0, 10 3.5, 0 7" fill="#1a1a1a"/></marker><pattern id="p-hachure" patternUnits="userSpaceOnUse" width="8" height="8" patternTransform="rotate(45)"><line x1="0" y1="0" x2="0" y2="8" stroke="#888" stroke-width="0.5"/></pattern><pattern id="p-cross-hatch" patternUnits="userSpaceOnUse" width="8" height="8"><line x1="0" y1="0" x2="0" y2="8" stroke="#888" stroke-width="0.5"/><line x1="0" y1="0" x2="8" y2="0" stroke="#888" stroke-width="0.5"/></pattern><pattern id="p-dots" patternUnits="userSpaceOnUse" width="6" height="6"><circle cx="1.5" cy="1.5" r="0.8" fill="#888"/><circle cx="4.5" cy="4.5" r="0.8" fill="#888"/></pattern><pattern id="p-dashed" patternUnits="userSpaceOnUse" width="10" height="8"><line x1="0" y1="4" x2="6" y2="4" stroke="#888" stroke-width="0.5"/></pattern></defs><rect x="0" y="0" width="1600" height="900" stroke="#b0d4f1" stroke-width="1" fill="#a8d8ff" rx="1"/><rect x="0" y="700" width="1600" height="200" stroke="#1a1a1a" stroke-width="2" fill="#4caf50" rx="1"/><circle cx="1460" cy="110" r="60" stroke="#1a1a1a" stroke-width="2" fill="#f0c040"/><ellipse cx="220" cy="160" rx="60" ry="30" stroke="#1a1a1a" stroke-width="2" fill="none"/><ellipse cx="270" cy="135" rx="50" ry="25" stroke="#1a1a1a" stroke-width="2" fill="none"/><ellipse cx="335" cy="147.5" rx="55" ry="27.5" stroke="#1a1a1a" stroke-width="2" fill="none"/><ellipse cx="240" cy="120" rx="40" ry="20" stroke="#1a1a1a" stroke-width="2" fill="none"/><ellipse cx="295" cy="162.5" rx="45" ry="22.5" stroke="#1a1a1a" stroke-width="2" fill="none"/><ellipse cx="815" cy="132.5" rx="65" ry="32.5" stroke="#999" stroke-width="2" fill="none"/><ellipse cx="875" cy="107.5" rx="55" ry="27.5" stroke="#1a1a1a" stroke-width="2" fill="none"/><ellipse cx="930" cy="120" rx="50" ry="25" stroke="#1a1a1a" stroke-width="2" fill="#f8f8f8"/><ellipse cx="835" cy="92.5" rx="45" ry="22.5" stroke="#1a1a1a" stroke-width="2" fill="none"/><ellipse cx="1260" cy="200" rx="60" ry="30" stroke="#1a1a1a" stroke-width="2" fill="none"/><ellipse cx="1310" cy="175" rx="50" ry="25" stroke="#1a1a1a" stroke-width="2" fill="none"/><ellipse cx="1375" cy="187.5" rx="55" ry="27.5" stroke="#1a1a1a" stroke-width="2" fill="none"/><rect x="600" y="550" width="200" height="150" stroke="#1a1a1a" stroke-width="2" fill="#b54a35" rx="1"/><path d="M600 550 L700 430" stroke="#2c3e50" stroke-width="3" fill="none" stroke-linecap="round" stroke-linejoin="round"/><path d="M700 430 L800 550" stroke="#4a4a4a" stroke-width="3" fill="none" stroke-linecap="round" stroke-linejoin="round"/><rect x="750" y="470" width="30" height="80" stroke="#1a1a1a" stroke-width="2" fill="#4a4a4a" rx="1"/><rect x="670" y="620" width="60" height="80" stroke="#1a1a1a" stroke-width="2" fill="#8B4513" rx="1"/><rect x="620" y="580" width="40" height="40" stroke="#b0d4f1" stroke-width="2" fill="#a8d8ff" rx="1"/><rect x="740" y="580" width="40" height="40" stroke="#1a1a1a" stroke-width="2" fill="#a8d8ff" rx="1"/><circle cx="1020" cy="620" r="20" stroke="#1a1a1a" stroke-width="2" fill="#ffcc99"/><rect x="1000" y="640" width="40" height="60" stroke="#1a1a1a" stroke-width="2" fill="#4a90d9" rx="1"/><path d="M1010 700 L1000 730" stroke="#1a1a1a" stroke-width="3" fill="none" stroke-linecap="round" stroke-linejoin="round"/><path d="M1030 700 L1040 730" stroke="#1a1a1a" stroke-width="3" fill="none" stroke-linecap="round" stroke-linejoin="round"/><path d="M1000 650 L960 620" stroke="#1a1a1a" stroke-width="3" fill="none" stroke-linecap="round" stroke-linejoin="round"/><path d="M1040 650 L1080 600" stroke="#1a1a1a" stroke-width="3" fill="none" stroke-linecap="round" stroke-linejoin="round"/><path d="M1080 600 L1200 300" stroke="#1a1a1a" stroke-width="3" fill="none" stroke-linecap="round" stroke-linejoin="round"/><polygon points="1200,260 1230,300 1200,340 1170,300" stroke="#1a1a1a" stroke-width="2" fill="#e03131"/></svg>