<svg width="1600" height="900" viewBox="0 0 1600 900" class="max-w-full max-h-[60vh] bg-white shadow-sm border border-zinc-200" style="aspect-ratio: 1600 / 900;" xmlns="http://www.w3.org/2000/svg"><defs><marker id="arrowhead-svg" markerWidth="10" markerHeight="7" refX="10" refY="3.5" orient="auto"><polygon points="0 0, 10 3.5, 0 7" fill="#1a1a1a"/></marker><marker id="arrowhead-curve" markerWidth="10" markerHeight="7" refX="10" refY="3.5" orient="auto"><polygon points="0 0, 10 3.5, 0 7" fill="#1a1a1a"/></marker><pattern id="p-hachure" patternUnits="userSpaceOnUse" width="8" height="8" patternTransform="rotate(45)"><line x1="0" y1="0" x2="0" y2="8" stroke="#888" stroke-width="0.5"/></pattern><pattern id="p-cross-hatch" patternUnits="userSpaceOnUse" width="8" height="8"><line x1="0" y1="0" x2="0" y2="8" stroke="#888" stroke-width="0.5"/><line x1="0" y1="0" x2="8" y2="0" stroke="#888" stroke-width="0.5"/></pattern><pattern id="p-dots" patternUnits="userSpaceOnUse" width="6" height="6"><circle cx="1.5" cy="1.5" r="0.8" fill="#888"/><circle cx="4.5" cy="4.5" r="0.8" fill="#888"/></pattern><pattern id="p-dashed" patternUnits="userSpaceOnUse" width="10" height="8"><line x1="0" y1="4" x2="6" y2="4" stroke="#888" stroke-width="0.5"/></pattern></defs><circle cx="200" cy="250" r="25" stroke="#1a1a1a" stroke-width="2" fill="#4a90d9"/><circle cx="200" cy="450" r="25" stroke="#1a1a1a" stroke-width="2" fill="#4a90d9"/><circle cx="200" cy="650" r="25" stroke="#1a1a1a" stroke-width="2" fill="#4a90d9"/><circle cx="500" cy="210" r="25" stroke="#1a1a1a" stroke-width="2" fill="#4a90d9"/><circle cx="500" cy="370" r="25" stroke="#1a1a1a" stroke-width="2" fill="#4a90d9"/><circle cx="500" cy="530" r="25" stroke="#1a1a1a" stroke-width="2" fill="#4a90d9"/><circle cx="500" cy="690" r="25" stroke="#1a1a1a" stroke-width="2" fill="#4a90d9"/><circle cx="800" cy="210" r="25" stroke="#1a1a1a" stroke-width="2" fill="#4a90d9"/><circle cx="800" cy="370" r="25" stroke="#1a1a1a" stroke-width="2" fill="#4a90d9"/><circle cx="800" cy="530" r="25" stroke="#1a1a1a" stroke-width="2" fill="#4a90d9"/><circle cx="800" cy="690" r="25" stroke="#1a1a1a" stroke-width="2" fill="#4a90d9"/><circle cx="1100" cy="317" r="25" stroke="#1a1a1a" stroke-width="2" fill="#4a90d9"/><circle cx="1100" cy="583" r="25" stroke="#1a1a1a" stroke-width="2" fill="#4a90d9"/><path d="M200 250 L500 210" stroke="#999999" stroke-width="1.5" fill="none" stroke-linecap="round" stroke-linejoin="round"/><path d="M200 250 L500 370" stroke="#999" stroke-width="1" fill="none" stroke-linecap="round" stroke-linejoin="round"/><path d="M200 250 L500 530" stroke="#999" stroke-width="1.5" fill="none" stroke-linecap="round" stroke-linejoin="round"/><path d="M200 250 L500 690" stroke="#999" stroke-width="1" fill="none" stroke-linecap="round" stroke-linejoin="round"/><path d="M200 450 L500 210" stroke="#888888" stroke-width="1" fill="none" stroke-linecap="round" stroke-linejoin="round"/><path d="M200 450 L500 370" stroke="#888" stroke-width="1" fill="none" stroke-linecap="round" stroke-linejoin="round"/><path d="M200 450 L500 530" stroke="#888888" stroke-width="1" fill="none" stroke-linecap="round" stroke-linejoin="round"/><path d="M200 450 L500 690" stroke="#999" stroke-width="1.5" fill="none" stroke-linecap="round" stroke-linejoin="round"/><path d="M200 650 L500 210" stroke="#999" stroke-width="1" fill="none" stroke-linecap="round" stroke-linejoin="round"/><path d="M200 650 L500 370" stroke="#999999" stroke-width="1" fill="none" stroke-linecap="round" stroke-linejoin="round"/><path d="M200 650 L500 530" stroke="#999" stroke-width="1" fill="none" stroke-linecap="round" stroke-linejoin="round"/><path d="M200 650 L500 690" stroke="#888" stroke-width="1.5" fill="none" stroke-linecap="round" stroke-linejoin="round"/><path d="M500 210 L800 210" stroke="#888888" stroke-width="1" fill="none" stroke-linecap="round" stroke-linejoin="round"/><path d="M500 210 L800 370" stroke="#999" stroke-width="1.5" fill="none" stroke-linecap="round" stroke-linejoin="round"/><path d="M500 210 L800 530" stroke="#888888" stroke-width="1" fill="none" stroke-linecap="round" stroke-linejoin="round"/><path d="M500 210 L800 690" stroke="#888888" stroke-width="1.5" fill="none" stroke-linecap="round" stroke-linejoin="round"/><path d="M500 370 L800 210" stroke="#888888" stroke-width="1.5" fill="none" stroke-linecap="round" stroke-linejoin="round"/><path d="M500 370 L800 370" stroke="#999" stroke-width="1" fill="none" stroke-linecap="round" stroke-linejoin="round"/><path d="M500 370 L800 530" stroke="#999" stroke-width="1.5" fill="none" stroke-linecap="round" stroke-linejoin="round"/><path d="M500 370 L800 690" stroke="#888888" stroke-width="1" fill="none" stroke-linecap="round" stroke-linejoin="round"/><path d="M500 530 L800 210" stroke="#999" stroke-width="1" fill="none" stroke-linecap="round" stroke-linejoin="round"/><path d="M500 530 L800 370" stroke="#888888" stroke-width="1" fill="none" stroke-linecap="round" stroke-linejoin="round"/><path d="M500 530 L800 530" stroke="#999" stroke-width="1.5" fill="none" stroke-linecap="round" stroke-linejoin="round"/><path d="M500 530 L800 690" stroke="#888" stroke-width="1" fill="none" stroke-linecap="round" stroke-linejoin="round"/><path d="M500 690 L800 210" stroke="#888888" stroke-width="1" fill="none" stroke-linecap="round" stroke-linejoin="round"/><path d="M500 690 L800 370" stroke="#888888" stroke-width="1" fill="none" stroke-linecap="round" stroke-linejoin="round"/><path d="M500 690 L800 530" stroke="#aaaaaa" stroke-width="1" fill="none" stroke-linecap="round" stroke-linejoin="round"/><path d="M500 690 L800 690" stroke="#999" stroke-width="1.5" fill="none" stroke-linecap="round" stroke-linejoin="round"/><path d="M800 210 L1100 317" stroke="#999" stroke-width="1" fill="none" stroke-linecap="round" stroke-linejoin="round"/><path d="M800 210 L1100 583" stroke="#888" stroke-width="1" fill="none" stroke-linecap="round" stroke-linejoin="round"/><path d="M800 370 L1100 317" stroke="#aaa" stroke-width="1" fill="none" stroke-linecap="round" stroke-linejoin="round"/><path d="M800 370 L1100 583" stroke="#999" stroke-width="1" fill="none" stroke-linecap="round" stroke-linejoin="round"/><path d="M800 530 L1100 317" stroke="#999" stroke-width="1" fill="none" stroke-linecap="round" stroke-linejoin="round"/><path d="M800 530 L1100 583" stroke="#999" stroke-width="1" fill="none" stroke-linecap="round" stroke-linejoin="round"/><path d="M800 690 L1100 317" stroke="#999999" stroke-width="1" fill="none" stroke-linecap="round" stroke-linejoin="round"/><path d="M800 690 L1100 583" stroke="#888888" stroke-width="1.5" fill="none" stroke-linecap="round" stroke-linejoin="round"/><text x="150" y="738" font-size="18" fill="#1a1a1a" font-family="sans-serif" text-anchor="start"><tspan x="150" dy="0">输入层</tspan></text><text x="440" y="738" font-size="18" fill="#1a1a1a" font-family="sans-serif" text-anchor="start"><tspan x="440" dy="0">隐藏层1</tspan></text><text x="740" y="738" font-size="18" fill="#1a1a1a" font-family="sans-serif" text-anchor="start"><tspan x="740" dy="0">隐藏层2</tspan></text><text x="1040" y="738" font-size="18" fill="#1a1a1a" font-family="sans-serif" text-anchor="start"><tspan x="1040" dy="0">输出层</tspan></text><text x="550" y="68" font-size="28" fill="#1a1a1a" font-family="sans-serif" text-anchor="start"><tspan x="550" dy="0">神经网络连接示意图</tspan></text></svg>